<svg xmlns="http://www.w3.org/2000/svg" xmlns:xlink="http://www.w3.org/1999/xlink" viewBox="0 0 624 138" width="624" height="138" preserveAspectRatio="xMidYMid meet" style="width: 100%; height: 100%; transform: translate3d(0px, 0px, 0px); content-visibility: visible;"><defs><clipPath id="__lottie_element_77"><rect width="624" height="138" x="0" y="0"></rect></clipPath><image xlink:href="https://cdn.lottielab.com/l/https://cdn.lottielab.com/a/i/5tPhik7vnrQSXop23ZnP5NuEUyrxjz0"></image><image xlink:href="https://cdn.lottielab.com/l/https://cdn.lottielab.com/a/i/5tNARfQM4xJzKLMA85j53ba8D4enyV0"></image><image xlink:href="https://cdn.lottielab.com/l/https://cdn.lottielab.com/a/i/5tPthmiDkvbeefi2T6aX2edsE2ji5t0"></image><image xlink:href="https://cdn.lottielab.com/l/https://cdn.lottielab.com/a/i/5tMq5gsu4v86D5Tm9muk96jynhAsCW0"></image><image xlink:href="https://cdn.lottielab.com/l/https://cdn.lottielab.com/a/i/5tQFB24ss5rBbc4yPzLTkex1tjAi4t0"></image><image xlink:href="https://cdn.lottielab.com/l/https://cdn.lottielab.com/a/i/5tMnMf9JQTPQPvbJuvoRjB5WSfpYhg0"></image><clipPath id="__lottie_element_79"><path d="M0,0 L1920,0 L1920,1920 L0,1920z"></path></clipPath><clipPath id="__lottie_element_105"><path d="M0,0 L484,0 L484,589 L0,589z"></path></clipPath><g id="__lottie_element_108"><g style="display: block;" transform="matrix(1,0,0,1,-816,-443)" opacity="1"><g opacity="1" transform="matrix(1,0,0,1,960,960)"><g opacity="1" transform="matrix(1,0,0,1,0,0)"><path fill="rgb(61,232,109)" fill-opacity="1" d=" M175.74000549316406,-516.75 C175.74000549316406,-516.75 -143.63999938964844,-176.47000122070312 -143.63999938964844,-176.47000122070312 C-143.63999938964844,-176.47000122070312 -131.6999969482422,-146.6300048828125 -131.6999969482422,-146.6300048828125 C-131.6999969482422,-146.6300048828125 38.439998626708984,-154.08999633789062 38.439998626708984,-154.08999633789062 C38.439998626708984,-154.08999633789062 13.0600004196167,63.810001373291016 13.0600004196167,63.810001373291016 C13.0600004196167,63.810001373291016 28,72 28,72 C28,72 339.9100036621094,-279.45001220703125 339.9100036621094,-279.45001220703125 C339.9100036621094,-279.45001220703125 141.41000366210938,-285.4200134277344 141.41000366210938,-285.4200134277344 C141.41000366210938,-285.4200134277344 175.74000549316406,-516.75 175.74000549316406,-516.75 C175.74000549316406,-516.75 175.74000549316406,-516.75 175.74000549316406,-516.75z"></path></g></g></g></g><clipPath id="__lottie_element_112"><path d="M0,0 L484,0 L484,589 L0,589z"></path></clipPath><clipPath id="__lottie_element_116"><path d="M0,0 L485,0 L485,591 L0,591z"></path></clipPath><mask id="__lottie_element_108_1" mask-type="alpha"><use xlink:href="#__lottie_element_108"></use></mask><clipPath id="__lottie_element_127"><path d="M0,0 L484,0 L484,589 L0,589z"></path></clipPath><g id="__lottie_element_130"><g transform="matrix(1,0,0,1,-816,-443)" opacity="1" style="display: block;"><g opacity="1" transform="matrix(1,0,0,1,960,960)"><g opacity="1" transform="matrix(1,0,0,1,0,0)"><path fill="rgb(61,232,109)" fill-opacity="1" d=" M175.74000549316406,-516.75 C175.74000549316406,-516.75 -143.63999938964844,-176.47000122070312 -143.63999938964844,-176.47000122070312 C-143.63999938964844,-176.47000122070312 -131.6999969482422,-146.6300048828125 -131.6999969482422,-146.6300048828125 C-131.6999969482422,-146.6300048828125 38.439998626708984,-154.08999633789062 38.439998626708984,-154.08999633789062 C38.439998626708984,-154.08999633789062 13.0600004196167,63.810001373291016 13.0600004196167,63.810001373291016 C13.0600004196167,63.810001373291016 28,72 28,72 C28,72 339.9100036621094,-279.45001220703125 339.9100036621094,-279.45001220703125 C339.9100036621094,-279.45001220703125 141.41000366210938,-285.4200134277344 141.41000366210938,-285.4200134277344 C141.41000366210938,-285.4200134277344 175.74000549316406,-516.75 175.74000549316406,-516.75 C175.74000549316406,-516.75 175.74000549316406,-516.75 175.74000549316406,-516.75z"></path></g></g></g></g><clipPath id="__lottie_element_134"><path d="M0,0 L484,0 L484,589 L0,589z"></path></clipPath><clipPath id="__lottie_element_138"><path d="M0,0 L485,0 L485,591 L0,591z"></path></clipPath><mask id="__lottie_element_130_1" mask-type="alpha"><use xlink:href="#__lottie_element_130"></use></mask><clipPath id="__lottie_element_149"><path d="M0,0 L1183,0 L1183,1091 L0,1091z"></path></clipPath><g id="__lottie_element_152"><g transform="matrix(1.0054999589920044,0,0,1.0054999589920044,-0.00396728515625,0.6290283203125)" opacity="1" style="display: block;"><image width="1176px" height="1084px" preserveAspectRatio="xMidYMid slice" xlink:href="https://cdn.lottielab.com/l/https://cdn.lottielab.com/a/i/5tPthmiDkvbeefi2T6aX2edsE2ji5t0"></image></g></g><clipPath id="__lottie_element_156"><path d="M0,0 L1183,0 L1183,1091 L0,1091z"></path></clipPath><mask id="__lottie_element_152_1" mask-type="alpha"><use xlink:href="#__lottie_element_152"></use></mask><clipPath id="__lottie_element_167"><path d="M0,0 L1797,0 L1797,1364 L0,1364z"></path></clipPath><g id="__lottie_element_170"><g transform="matrix(1,0,0,1,-118,-106)" opacity="1" style="display: block;"><g opacity="1" transform="matrix(1,0,0,1,960,960)"><g opacity="1" transform="matrix(1,0,0,1,0,0)"><path fill="rgb(61,232,109)" fill-opacity="1" d=" M-841.9000244140625,-457.1400146484375 C-841.9000244140625,-457.1400146484375 -758.0999755859375,-380.95001220703125 -758.0999755859375,-380.95001220703125 C-758.0999755859375,-380.95001220703125 -118.08999633789062,510.4800109863281 -118.08999633789062,510.4800109863281 C-118.08999633789062,510.4800109863281 -83.80999755859375,529.52001953125 -83.80999755859375,529.52001953125 C-83.80999755859375,529.52001953125 -841.9000244140625,-457.1400146484375 -841.9000244140625,-457.1400146484375 C-841.9000244140625,-457.1400146484375 -841.9000244140625,-457.1400146484375 -841.9000244140625,-457.1400146484375z"></path></g></g></g></g><clipPath id="__lottie_element_174"><path d="M0,0 L1797,0 L1797,1364 L0,1364z"></path></clipPath><mask id="__lottie_element_170_1" mask-type="alpha"><use xlink:href="#__lottie_element_170"></use></mask></defs><g clip-path="url(#__lottie_element_77)"><g transform="matrix(1,0,0,1,0,0)" opacity="1" style="display: block;"><g opacity="1" transform="matrix(1,0,0,1,312,69)"><path fill="rgb(3,3,3)" fill-opacity="1" d=" M312,-65 C312,-65 312,65 312,65 C312,67.20760345458984 310.2076110839844,69 308,69 C308,69 -308,69 -308,69 C-310.2076110839844,69 -312,67.20760345458984 -312,65 C-312,65 -312,-65 -312,-65 C-312,-67.20760345458984 -310.2076110839844,-69 -308,-69 C-308,-69 308,-69 308,-69 C310.2076110839844,-69 312,-67.20760345458984 312,-65z"></path></g></g><g clip-path="url(#__lottie_element_79)" transform="matrix(0.10140000283718109,0,0,0.10140000283718109,429.83306884765625,-10.862930297851562)" opacity="1" style="display: block;"><g transform="matrix(1.9853999614715576,0,0,1.9853999614715576,83.5050048828125,53.7239990234375)" opacity="0.85" style="display: block;"><image width="925px" height="940px" preserveAspectRatio="xMidYMid slice" xlink:href="https://cdn.lottielab.com/l/https://cdn.lottielab.com/a/i/5tMnMf9JQTPQPvbJuvoRjB5WSfpYhg0"></image></g><g transform="matrix(3.984999895095825,0,0,3.984999895095825,74.945068359375,47.050048828125)" opacity="1" style="display: block;"><image width="463px" height="470px" preserveAspectRatio="xMidYMid slice" xlink:href="https://cdn.lottielab.com/l/https://cdn.lottielab.com/a/i/5tQFB24ss5rBbc4yPzLTkex1tjAi4t0"></image></g><g clip-path="url(#__lottie_element_167)" transform="matrix(1,0,0,1,118,106)" opacity="1" style="display: block;"><g mask="url(#__lottie_element_170_1)" style="display: block;"><g clip-path="url(#__lottie_element_174)" transform="matrix(1,0,0,1,0,0)" opacity="1"><g transform="matrix(1,0,0,1,-118,-106)" opacity="1" style="display: block;"><path fill="rgb(0,0,0)" fill-opacity="0" d=" M1915,106 C1915,106 1915,1470 1915,1470 C1915,1470 118,1470 118,1470 C118,1470 118,106 118,106 C118,106 1915,106 1915,106z"></path></g><g transform="matrix(4.012400150299072,0,0,4.012400150299072,361.17095947265625,127.99359130859375)" opacity="1" style="display: block;"><image width="295px" height="272px" preserveAspectRatio="xMidYMid slice" xlink:href="https://cdn.lottielab.com/l/https://cdn.lottielab.com/a/i/5tMq5gsu4v86D5Tm9muk96jynhAsCW0"></image></g></g></g></g><g clip-path="url(#__lottie_element_149)" transform="matrix(1,0,0,1,487,229)" opacity="1" style="display: block;"><g mask="url(#__lottie_element_152_1)" style="display: block;"><g clip-path="url(#__lottie_element_156)" transform="matrix(1,0,0,1,0,0)" opacity="1"><g transform="matrix(1,0,0,1,-487,-229)" opacity="1" style="display: block;"><path fill="rgb(0,0,0)" fill-opacity="0" d=" M1670,229 C1670,229 1670,1320 1670,1320 C1670,1320 487,1320 487,1320 C487,1320 487,229 487,229 C487,229 1670,229 1670,229z"></path></g><g style="display: none;" transform="matrix(1,0,0,1,-1396.0599365234375,-143.10296630859375)" opacity="0.02013999999962664"><image width="2225px" height="2231px" preserveAspectRatio="xMidYMid slice" xlink:href="https://cdn.lottielab.com/l/https://cdn.lottielab.com/a/i/5tNARfQM4xJzKLMA85j53ba8D4enyV0"></image></g></g></g></g><g clip-path="url(#__lottie_element_127)" transform="matrix(1,0,0,1,816,443)" opacity="1" style="display: block;"><g mask="url(#__lottie_element_130_1)" style="display: block;"><g clip-path="url(#__lottie_element_134)" transform="matrix(1,0,0,1,0,0)" opacity="1"><g transform="matrix(1,0,0,1,-816,-443)" opacity="1" style="display: block;"><path fill="rgb(0,0,0)" fill-opacity="0" d=" M1300,443 C1300,443 1300,1032 1300,1032 C1300,1032 816,1032 816,1032 C816,1032 816,443 816,443 C816,443 1300,443 1300,443z"></path></g><g clip-path="url(#__lottie_element_138)" transform="matrix(1,0,0,1,-1,-1)" opacity="1" style="display: block;"><g transform="matrix(0.3499999940395355,0,0,0.3499999940395355,-430.44500732421875,147.30499267578125)" opacity="0.7000000000000001" style="display: block;"><image width="2225px" height="2231px" preserveAspectRatio="xMidYMid slice" xlink:href="https://cdn.lottielab.com/l/https://cdn.lottielab.com/a/i/5tNARfQM4xJzKLMA85j53ba8D4enyV0"></image></g></g></g></g></g><g clip-path="url(#__lottie_element_105)" transform="matrix(1,0,0,1,816,443)" opacity="1" style="display: block;"><g mask="url(#__lottie_element_108_1)" style="display: block;"><g clip-path="url(#__lottie_element_112)" transform="matrix(1,0,0,1,0,0)" opacity="1"><g transform="matrix(1,0,0,1,-816,-443)" opacity="1" style="display: block;"><path fill="rgb(0,0,0)" fill-opacity="0" d=" M1300,443 C1300,443 1300,1032 1300,1032 C1300,1032 816,1032 816,1032 C816,1032 816,443 816,443 C816,443 1300,443 1300,443z"></path></g><g clip-path="url(#__lottie_element_116)" transform="matrix(1,0,0,1,-1,-1)" opacity="1" style="display: block;"><g transform="matrix(0.20000000298023224,0,0,0.20000000298023224,-263.57000732421875,314.6299743652344)" opacity="0.5" style="display: block;"><image width="2225px" height="2231px" preserveAspectRatio="xMidYMid slice" xlink:href="https://cdn.lottielab.com/l/https://cdn.lottielab.com/a/i/5tNARfQM4xJzKLMA85j53ba8D4enyV0"></image></g></g></g></g></g><g transform="matrix(0,0,0,0,988.3599853515625,1015.219970703125)" opacity="1" style="display: block;"><image width="960px" height="960px" preserveAspectRatio="xMidYMid slice" xlink:href="https://cdn.lottielab.com/l/https://cdn.lottielab.com/a/i/5tPhik7vnrQSXop23ZnP5NuEUyrxjz0"></image></g><g transform="matrix(0,0,0,0,1120.3599853515625,467.92999267578125)" opacity="1" style="display: block;"><image width="960px" height="960px" preserveAspectRatio="xMidYMid slice" xlink:href="https://cdn.lottielab.com/l/https://cdn.lottielab.com/a/i/5tPhik7vnrQSXop23ZnP5NuEUyrxjz0"></image></g><g transform="matrix(1.5898706912994385,0.4622972905635834,-0.4622972905635834,1.5898706912994385,437.34442138671875,-20.2723388671875)" opacity="1" style="display: block;"><image width="960px" height="960px" preserveAspectRatio="xMidYMid slice" xlink:href="https://cdn.lottielab.com/l/https://cdn.lottielab.com/a/i/5tPhik7vnrQSXop23ZnP5NuEUyrxjz0"></image></g><g transform="matrix(0,0,0,0,1123.280029296875,459.07000732421875)" opacity="1" style="display: block;"><image width="960px" height="960px" preserveAspectRatio="xMidYMid slice" xlink:href="https://cdn.lottielab.com/l/https://cdn.lottielab.com/a/i/5tPhik7vnrQSXop23ZnP5NuEUyrxjz0"></image></g><g transform="matrix(0,0,0,0,988.3599853515625,1015.219970703125)" opacity="1" style="display: block;"><image width="960px" height="960px" preserveAspectRatio="xMidYMid slice" xlink:href="https://cdn.lottielab.com/l/https://cdn.lottielab.com/a/i/5tPhik7vnrQSXop23ZnP5NuEUyrxjz0"></image></g><g transform="matrix(0,0,0,0,1121.6300048828125,459.07000732421875)" opacity="1" style="display: block;"><image width="960px" height="960px" preserveAspectRatio="xMidYMid slice" xlink:href="https://cdn.lottielab.com/l/https://cdn.lottielab.com/a/i/5tPhik7vnrQSXop23ZnP5NuEUyrxjz0"></image></g><g transform="matrix(0,0,0,0,988.3599853515625,1015.219970703125)" opacity="1" style="display: block;"><image width="960px" height="960px" preserveAspectRatio="xMidYMid slice" xlink:href="https://cdn.lottielab.com/l/https://cdn.lottielab.com/a/i/5tPhik7vnrQSXop23ZnP5NuEUyrxjz0"></image></g></g></g></svg>