<svg xmlns="http://www.w3.org/2000/svg" xmlns:xlink="http://www.w3.org/1999/xlink" viewBox="0 0 148 30" width="148" height="30" preserveAspectRatio="xMidYMid meet" style="width: 100%; height: 100%; transform: translate3d(0px, 0px, 0px); content-visibility: visible;"><defs><clipPath id="__lottie_element_1343"><rect width="148" height="30" x="0" y="0"></rect></clipPath><image xlink:href="https://cdn.lottielab.com/l/https://cdn.lottielab.com/a/i/5tNT3KF6tvRxq2GX1oUrK3JDSG4rdC0"></image><image xlink:href="https://cdn.lottielab.com/l/https://cdn.lottielab.com/a/i/5tQBcrvLWVNAokcqBfoWYgH2RxLvAu0"></image><image xlink:href="https://cdn.lottielab.com/l/https://cdn.lottielab.com/a/i/5tN8wMESg3JavydrJpgFwah1tVLBzN0"></image><image xlink:href="https://cdn.lottielab.com/l/https://cdn.lottielab.com/a/i/5tNXrLFr5xuiqju3ezeWqxch3CmiUE0"></image><image xlink:href="https://cdn.lottielab.com/l/https://cdn.lottielab.com/a/i/5tN47LXdLUxjvsaSB1UPuyDVPzSLC20"></image><image xlink:href="https://cdn.lottielab.com/l/https://cdn.lottielab.com/a/i/5tMztkfg3TtELqBGMNggSgq23iQi7E0"></image><linearGradient id="__lottie_element_1388" spreadMethod="pad" gradientUnits="userSpaceOnUse" x1="8.039999961853027" y1="-12.420000076293945" x2="8.039999961853027" y2="10"><stop offset="12%" stop-color="rgb(217,180,126)" stop-opacity="1"></stop><stop offset="83%" stop-color="rgb(151,120,54)" stop-opacity="1"></stop></linearGradient></defs><g clip-path="url(#__lottie_element_1343)"><g transform="matrix(1,0,0,1,0,0)" opacity="1" style="display: block;"><g opacity="1" transform="matrix(1,0,0,1,74,15)"><path fill="url(#__lottie_element_1388)" fill-opacity="1" d=" M30.26,-3.11 C30.26,-3.11 30.26,-4.45 30.26,-4.45 C30.26,-4.45 37.29,-4.45 37.29,-4.45 C37.29,-4.45 37.29,-3.11 37.29,-3.11 C37.29,-3.11 34.57,-3.11 34.57,-3.11 C34.57,-3.11 34.57,4.36 34.57,4.36 C34.57,4.36 32.98,4.36 32.98,4.36 C32.98,4.36 32.98,-3.11 32.98,-3.11 C32.98,-3.11 30.26,-3.11 30.26,-3.11 C30.26,-3.11 30.26,-3.11 30.26,-3.11z M27.64,-2.03 C27.6,-2.4 27.44,-2.69 27.14,-2.9 C26.84,-3.11 26.46,-3.22 25.98,-3.22 C25.65,-3.22 25.37,-3.17 25.13,-3.07 C24.89,-2.97 24.71,-2.83 24.58,-2.66 C24.46,-2.49 24.39,-2.29 24.39,-2.07 C24.39,-1.89 24.43,-1.73 24.52,-1.59 C24.6,-1.46 24.72,-1.34 24.86,-1.25 C25.01,-1.16 25.17,-1.08 25.35,-1.02 C25.53,-0.95 25.71,-0.9 25.89,-0.86 C25.89,-0.86 26.71,-0.65 26.71,-0.65 C27.04,-0.57 27.36,-0.47 27.67,-0.34 C27.98,-0.2 28.26,-0.04 28.5,0.16 C28.75,0.36 28.94,0.61 29.09,0.89 C29.23,1.17 29.3,1.51 29.3,1.89 C29.3,2.4 29.17,2.86 28.9,3.25 C28.64,3.64 28.26,3.95 27.76,4.16 C27.27,4.38 26.66,4.49 25.96,4.49 C25.27,4.49 24.68,4.39 24.18,4.18 C23.67,3.96 23.28,3.65 23,3.25 C22.72,2.84 22.56,2.34 22.54,1.76 C22.54,1.76 24.11,1.76 24.11,1.76 C24.13,2.07 24.23,2.32 24.39,2.52 C24.56,2.73 24.78,2.88 25.05,2.98 C25.31,3.08 25.61,3.13 25.95,3.13 C26.29,3.13 26.6,3.08 26.86,2.97 C27.12,2.87 27.33,2.72 27.48,2.53 C27.63,2.35 27.7,2.13 27.7,1.87 C27.7,1.65 27.63,1.46 27.5,1.3 C27.37,1.15 27.19,1.03 26.95,0.93 C26.71,0.82 26.44,0.73 26.12,0.65 C26.12,0.65 25.12,0.4 25.12,0.4 C24.4,0.21 23.82,-0.07 23.4,-0.45 C22.98,-0.83 22.77,-1.34 22.77,-1.97 C22.77,-2.49 22.91,-2.94 23.2,-3.33 C23.48,-3.72 23.86,-4.03 24.35,-4.24 C24.84,-4.46 25.39,-4.57 26.01,-4.57 C26.63,-4.57 27.18,-4.46 27.65,-4.24 C28.12,-4.03 28.49,-3.73 28.76,-3.34 C29.03,-2.96 29.17,-2.52 29.18,-2.03 C29.18,-2.03 27.64,-2.03 27.64,-2.03 C27.64,-2.03 27.64,-2.03 27.64,-2.03z M19.61,-4.45 C19.61,-4.45 21.21,-4.45 21.21,-4.45 C21.21,-4.45 21.21,1.31 21.21,1.31 C21.21,1.94 21.06,2.49 20.76,2.97 C20.46,3.45 20.05,3.82 19.51,4.09 C18.97,4.36 18.35,4.49 17.63,4.49 C16.91,4.49 16.28,4.36 15.75,4.09 C15.21,3.82 14.8,3.45 14.5,2.97 C14.21,2.49 14.06,1.94 14.06,1.31 C14.06,1.31 14.06,-4.45 14.06,-4.45 C14.06,-4.45 15.65,-4.45 15.65,-4.45 C15.65,-4.45 15.65,1.17 15.65,1.17 C15.65,1.54 15.73,1.87 15.9,2.15 C16.06,2.44 16.29,2.67 16.58,2.83 C16.88,2.99 17.23,3.07 17.63,3.07 C18.04,3.07 18.39,2.99 18.68,2.83 C18.98,2.67 19.21,2.44 19.37,2.15 C19.53,1.87 19.61,1.54 19.61,1.17 C19.61,1.17 19.61,-4.45 19.61,-4.45 C19.61,-4.45 19.61,-4.45 19.61,-4.45z M10.8,0.37 C10.8,0.37 12.98,4.36 12.98,4.36 C12.98,4.36 11.2,4.36 11.2,4.36 C11.2,4.36 9.06,0.37 9.06,0.37 C9.06,0.37 10.8,0.37 10.8,0.37 C10.8,0.37 10.8,0.37 10.8,0.37z M6.25,4.36 C6.25,4.36 6.25,-4.45 6.25,-4.45 C6.25,-4.45 9.55,-4.45 9.55,-4.45 C10.23,-4.45 10.8,-4.33 11.26,-4.09 C11.72,-3.86 12.06,-3.53 12.3,-3.11 C12.54,-2.68 12.66,-2.19 12.66,-1.63 C12.66,-1.07 12.54,-0.58 12.3,-0.16 C12.06,0.25 11.71,0.57 11.24,0.8 C10.78,1.02 10.21,1.14 9.53,1.14 C9.53,1.14 7.18,1.14 7.18,1.14 C7.18,1.14 7.18,-0.19 7.18,-0.19 C7.18,-0.19 9.31,-0.19 9.31,-0.19 C9.71,-0.19 10.03,-0.24 10.29,-0.35 C10.54,-0.47 10.73,-0.63 10.85,-0.84 C10.97,-1.05 11.03,-1.32 11.03,-1.63 C11.03,-1.94 10.97,-2.21 10.85,-2.43 C10.72,-2.65 10.53,-2.82 10.28,-2.94 C10.03,-3.06 9.7,-3.11 9.31,-3.11 C9.31,-3.11 7.84,-3.11 7.84,-3.11 C7.84,-3.11 7.84,4.36 7.84,4.36 C7.84,4.36 6.25,4.36 6.25,4.36 C6.25,4.36 6.25,4.36 6.25,4.36z M-2.05,-3.11 C-2.05,-3.11 -2.05,-4.45 -2.05,-4.45 C-2.05,-4.45 4.98,-4.45 4.98,-4.45 C4.98,-4.45 4.98,-3.11 4.98,-3.11 C4.98,-3.11 2.26,-3.11 2.26,-3.11 C2.26,-3.11 2.26,4.36 2.26,4.36 C2.26,4.36 0.67,4.36 0.67,4.36 C0.67,4.36 0.67,-3.11 0.67,-3.11 C0.67,-3.11 -2.05,-3.11 -2.05,-3.11 C-2.05,-3.11 -2.05,-3.11 -2.05,-3.11z M-12.95,-3.11 C-12.95,-3.11 -12.95,-4.45 -12.95,-4.45 C-12.95,-4.45 -5.92,-4.45 -5.92,-4.45 C-5.92,-4.45 -5.92,-3.11 -5.92,-3.11 C-5.92,-3.11 -8.64,-3.11 -8.64,-3.11 C-8.64,-3.11 -8.64,4.36 -8.64,4.36 C-8.64,4.36 -10.23,4.36 -10.23,4.36 C-10.23,4.36 -10.23,-3.11 -10.23,-3.11 C-10.23,-3.11 -12.95,-3.11 -12.95,-3.11 C-12.95,-3.11 -12.95,-3.11 -12.95,-3.11z M-14.21,-4.45 C-14.21,-4.45 -14.21,4.36 -14.21,4.36 C-14.21,4.36 -15.63,4.36 -15.63,4.36 C-15.63,4.36 -19.78,-1.64 -19.78,-1.64 C-19.78,-1.64 -19.86,-1.64 -19.86,-1.64 C-19.86,-1.64 -19.86,4.36 -19.86,4.36 C-19.86,4.36 -21.45,4.36 -21.45,4.36 C-21.45,4.36 -21.45,-4.45 -21.45,-4.45 C-21.45,-4.45 -20.02,-4.45 -20.02,-4.45 C-20.02,-4.45 -15.88,1.56 -15.88,1.56 C-15.88,1.56 -15.8,1.56 -15.8,1.56 C-15.8,1.56 -15.8,-4.45 -15.8,-4.45 C-15.8,-4.45 -14.21,-4.45 -14.21,-4.45 C-14.21,-4.45 -14.21,-4.45 -14.21,-4.45z M-23.16,-4.45 C-23.16,-4.45 -23.16,4.36 -23.16,4.36 C-23.16,4.36 -24.75,4.36 -24.75,4.36 C-24.75,4.36 -24.75,-4.45 -24.75,-4.45 C-24.75,-4.45 -23.16,-4.45 -23.16,-4.45 C-23.16,-4.45 -23.16,-4.45 -23.16,-4.45z M-34.98,4.36 C-34.98,4.36 -37.46,-4.45 -37.46,-4.45 C-37.46,-4.45 -35.75,-4.45 -35.75,-4.45 C-35.75,-4.45 -34.16,2.03 -34.16,2.03 C-34.16,2.03 -34.08,2.03 -34.08,2.03 C-34.08,2.03 -32.39,-4.45 -32.39,-4.45 C-32.39,-4.45 -30.82,-4.45 -30.82,-4.45 C-30.82,-4.45 -29.13,2.03 -29.13,2.03 C-29.13,2.03 -29.05,2.03 -29.05,2.03 C-29.05,2.03 -27.46,-4.45 -27.46,-4.45 C-27.46,-4.45 -25.75,-4.45 -25.75,-4.45 C-25.75,-4.45 -28.23,4.36 -28.23,4.36 C-28.23,4.36 -29.81,4.36 -29.81,4.36 C-29.81,4.36 -31.57,-1.82 -31.57,-1.82 C-31.57,-1.82 -31.64,-1.82 -31.64,-1.82 C-31.64,-1.82 -33.4,4.36 -33.4,4.36 C-33.4,4.36 -34.98,4.36 -34.98,4.36 C-34.98,4.36 -34.98,4.36 -34.98,4.36z"></path><g opacity="1" transform="matrix(0.00430000014603138,0,0,0.00430000014603138,29.780000686645508,4.360000133514404)"></g><g opacity="1" transform="matrix(0.00430000014603138,0,0,0.00430000014603138,21.989999771118164,4.360000133514404)"></g><g opacity="1" transform="matrix(0.00430000014603138,0,0,0.00430000014603138,13.1899995803833,4.360000133514404)"></g><g opacity="1" transform="matrix(0.00430000014603138,0,0,0.00430000014603138,5.380000114440918,4.360000133514404)"></g><g opacity="1" transform="matrix(0.00430000014603138,0,0,0.00430000014603138,-2.5299999713897705,4.360000133514404)"></g><g opacity="1" transform="matrix(0.00430000014603138,0,0,0.00430000014603138,-5.510000228881836,4.360000133514404)"></g><g opacity="1" transform="matrix(0.00430000014603138,0,0,0.00430000014603138,-13.430000305175781,4.360000133514404)"></g><g opacity="1" transform="matrix(0.00430000014603138,0,0,0.00430000014603138,-22.31999969482422,4.360000133514404)"></g><g opacity="1" transform="matrix(0.00430000014603138,0,0,0.00430000014603138,-25.6200008392334,4.360000133514404)"></g><g opacity="1" transform="matrix(0.00430000014603138,0,0,0.00430000014603138,-37.70000076293945,4.360000133514404)"></g></g></g><g transform="matrix(1,0,0,1,0,0)" opacity="1" style="display: block;"></g><g transform="matrix(0.05086103826761246,0.005839848425239325,-0.005839848425239325,0.05086103826761246,18.337514877319336,18.475093841552734)" opacity="1" style="display: block;"><image width="271px" height="271px" preserveAspectRatio="xMidYMid slice" xlink:href="https://cdn.lottielab.com/l/https://cdn.lottielab.com/a/i/5tMztkfg3TtELqBGMNggSgq23iQi7E0"></image></g><g transform="matrix(0.04563070833683014,0.012166980654001236,-0.012166980654001236,0.04563070833683014,15.270035743713379,-2.0335121154785156)" opacity="1" style="display: block;"><image width="271px" height="271px" preserveAspectRatio="xMidYMid slice" xlink:href="https://cdn.lottielab.com/l/https://cdn.lottielab.com/a/i/5tN47LXdLUxjvsaSB1UPuyDVPzSLC20"></image></g><g transform="matrix(0.04626040533185005,0.009495897218585014,-0.009495897218585014,0.04626040533185005,11.327770233154297,0.6926224827766418)" opacity="1" style="display: block;"><image width="271px" height="271px" preserveAspectRatio="xMidYMid slice" xlink:href="https://cdn.lottielab.com/l/https://cdn.lottielab.com/a/i/5tNXrLFr5xuiqju3ezeWqxch3CmiUE0"></image></g><g transform="matrix(0.046474214643239975,0.008387154899537563,-0.008387154899537563,0.046474214643239975,9.854138374328613,5.482907295227051)" opacity="1" style="display: block;"><image width="271px" height="271px" preserveAspectRatio="xMidYMid slice" xlink:href="https://cdn.lottielab.com/l/https://cdn.lottielab.com/a/i/5tN8wMESg3JavydrJpgFwah1tVLBzN0"></image></g><g transform="matrix(0.04627855122089386,0.009407066740095615,-0.009407066740095615,0.04627855122089386,11.751351356506348,11.267888069152832)" opacity="1" style="display: block;"><image width="271px" height="271px" preserveAspectRatio="xMidYMid slice" xlink:href="https://cdn.lottielab.com/l/https://cdn.lottielab.com/a/i/5tQBcrvLWVNAokcqBfoWYgH2RxLvAu0"></image></g><g transform="matrix(0.04616885632276535,0.009931463748216629,-0.009931463748216629,0.04616885632276535,14.676295280456543,15.49337100982666)" opacity="1" style="display: block;"><image width="271px" height="271px" preserveAspectRatio="xMidYMid slice" xlink:href="https://cdn.lottielab.com/l/https://cdn.lottielab.com/a/i/5tNT3KF6tvRxq2GX1oUrK3JDSG4rdC0"></image></g><g transform="matrix(-0.05086103826761246,0.005839848425239325,0.005839848425239325,0.05086103826761246,129.9124755859375,18.475093841552734)" opacity="1" style="display: block;"><image width="271px" height="271px" preserveAspectRatio="xMidYMid slice" xlink:href="https://cdn.lottielab.com/l/https://cdn.lottielab.com/a/i/5tMztkfg3TtELqBGMNggSgq23iQi7E0"></image></g><g transform="matrix(-0.04563070833683014,0.012166980654001236,0.012166980654001236,0.04563070833683014,132.97994995117188,-2.0335121154785156)" opacity="1" style="display: block;"><image width="271px" height="271px" preserveAspectRatio="xMidYMid slice" xlink:href="https://cdn.lottielab.com/l/https://cdn.lottielab.com/a/i/5tN47LXdLUxjvsaSB1UPuyDVPzSLC20"></image></g><g transform="matrix(-0.04626040533185005,0.009495897218585014,0.009495897218585014,0.04626040533185005,136.92222595214844,0.6926224827766418)" opacity="1" style="display: block;"><image width="271px" height="271px" preserveAspectRatio="xMidYMid slice" xlink:href="https://cdn.lottielab.com/l/https://cdn.lottielab.com/a/i/5tNXrLFr5xuiqju3ezeWqxch3CmiUE0"></image></g><g transform="matrix(-0.046474214643239975,0.008387154899537563,0.008387154899537563,0.046474214643239975,138.39585876464844,5.482907295227051)" opacity="1" style="display: block;"><image width="271px" height="271px" preserveAspectRatio="xMidYMid slice" xlink:href="https://cdn.lottielab.com/l/https://cdn.lottielab.com/a/i/5tN8wMESg3JavydrJpgFwah1tVLBzN0"></image></g><g transform="matrix(-0.04627855122089386,0.009407066740095615,0.009407066740095615,0.04627855122089386,136.49864196777344,11.267888069152832)" opacity="1" style="display: block;"><image width="271px" height="271px" preserveAspectRatio="xMidYMid slice" xlink:href="https://cdn.lottielab.com/l/https://cdn.lottielab.com/a/i/5tQBcrvLWVNAokcqBfoWYgH2RxLvAu0"></image></g><g transform="matrix(-0.04616885632276535,0.009931463748216629,0.009931463748216629,0.04616885632276535,133.57369995117188,15.49337100982666)" opacity="1" style="display: block;"><image width="271px" height="271px" preserveAspectRatio="xMidYMid slice" xlink:href="https://cdn.lottielab.com/l/https://cdn.lottielab.com/a/i/5tNT3KF6tvRxq2GX1oUrK3JDSG4rdC0"></image></g></g></svg>